<?xml version="1.0" encoding="UTF-8" standalone="no"?>
<!-- Created with Inkscape (http://www.inkscape.org/) -->

<svg
   width="1920.0002"
   height="1080.0001"
   viewBox="0 0 508.00005 285.75003"
   version="1.1"
   id="svg1"
   xml:space="preserve"
   sodipodi:docname="backgroundgame.svg"
   inkscape:version="1.3 (0e150ed6c4, 2023-07-21)"
   xmlns:inkscape="http://www.inkscape.org/namespaces/inkscape"
   xmlns:sodipodi="http://sodipodi.sourceforge.net/DTD/sodipodi-0.dtd"
   xmlns="http://www.w3.org/2000/svg"
   xmlns:svg="http://www.w3.org/2000/svg"><sodipodi:namedview
     id="namedview1"
     pagecolor="#ffffff"
     bordercolor="#000000"
     borderopacity="0.25"
     inkscape:showpageshadow="2"
     inkscape:pageopacity="0.0"
     inkscape:pagecheckerboard="0"
     inkscape:deskcolor="#d1d1d1"
     inkscape:document-units="px"
     inkscape:zoom="0.35355339"
     inkscape:cx="-3857.9746"
     inkscape:cy="-733.97684"
     inkscape:window-width="1920"
     inkscape:window-height="1017"
     inkscape:window-x="-8"
     inkscape:window-y="-8"
     inkscape:window-maximized="1"
     inkscape:current-layer="layer1" /><defs
     id="defs1" /><g
     inkscape:label="Camada 1"
     inkscape:groupmode="layer"
     id="layer1"
     transform="translate(-2625.0454,-93.472743)"><g
       id="g35"
       transform="translate(-31.596419,15.458653)"
       inkscape:export-filename="..\Documents\GitHub\TCI\Imagens_PP\gameBackground.svg"
       inkscape:export-xdpi="96"
       inkscape:export-ydpi="96"><g
         id="g25"
         transform="translate(-42.429631,33.09172)"><g
           id="g28"
           transform="translate(-1.925884,-55.90096)"><path
             id="rect2-7-2-0-2"
             style="fill:#3b136b;fill-opacity:1;stroke-width:5.72569"
             d="m 2700.9973,100.82331 h 508 v 285.75003 h -508 z" /><path
             id="path25"
             style="fill:#ffffff;fill-opacity:0;stroke:#ffffff;stroke-width:1.05007"
             inkscape:transform-center-x="-1.2268723e-06"
             d="m 2741.7362,252.18878 -14.6042,24.94731 -25.6088,-2.22053 v 1.59215 l 21.7563,12.73617 -2.497,28.79979 14.6042,-24.94783 28.8004,2.49753 -24.9479,-14.6048 z" /></g></g><g
         id="g34"
         transform="matrix(1.3240095,0,0,1.3240095,-1025.3981,-87.681295)"><path
           id="path5-0"
           style="fill:none;stroke:#ffffff;stroke-width:0.969764"
           d="m 3137.3254,226.23862 a 40.780805,8.425898 0 0 0 -40.7809,8.42585 40.780805,8.425898 0 0 0 40.7809,8.42584 40.780805,8.425898 0 0 0 26.8429,-2.08307 v -12.68243 a 40.780805,8.425898 0 0 0 -26.8429,-2.08619 z" /><path
           id="path5-0-2"
           style="fill:none;stroke:#ffffff;stroke-width:0.969764"
           d="m 3137.3255,236.14308 a 40.780805,8.425898 0 0 0 -40.7809,8.42585 40.780805,8.425898 0 0 0 40.7809,8.42584 40.780805,8.425898 0 0 0 26.8429,-2.08307 v -12.68243 a 40.780805,8.425898 0 0 0 -26.8429,-2.08619 z" /><path
           id="path5-0-2-6"
           style="fill:none;stroke:#ffffff;stroke-width:0.969764"
           d="m 3137.3255,246.0475 a 40.780805,8.425898 0 0 0 -40.7809,8.42585 40.780805,8.425898 0 0 0 40.7809,8.42584 40.780805,8.425898 0 0 0 26.8429,-2.08307 v -12.68243 a 40.780805,8.425898 0 0 0 -26.8429,-2.08619 z" /><path
           id="path5-0-2-6-6"
           style="fill:none;stroke:#ffffff;stroke-width:0.969764"
           d="m 3137.3255,255.95217 a 40.780805,8.425898 0 0 0 -40.7809,8.42584 40.780805,8.425898 0 0 0 40.7809,8.42585 40.780805,8.425898 0 0 0 26.8429,-2.08307 v -12.68244 a 40.780805,8.425898 0 0 0 -26.8429,-2.08618 z" /><path
           id="path5-0-2-6-6-2"
           style="fill:none;stroke:#ffffff;stroke-width:0.969764"
           d="m 3137.3255,265.85659 a 40.780805,8.425898 0 0 0 -40.7809,8.42584 40.780805,8.425898 0 0 0 40.7809,8.42585 40.780805,8.425898 0 0 0 26.8429,-2.08307 v -12.68244 a 40.780805,8.425898 0 0 0 -26.8429,-2.08618 z" /><path
           id="path5-0-2-6-6-2-8"
           style="fill:none;stroke:#ffffff;stroke-width:0.969764"
           d="m 3137.3255,275.76126 a 40.780805,8.425898 0 0 0 -40.7809,8.42584 40.780805,8.425898 0 0 0 40.7809,8.42585 40.780805,8.425898 0 0 0 26.8429,-2.08307 v -12.68244 a 40.780805,8.425898 0 0 0 -26.8429,-2.08618 z" /></g></g></g></svg>
